<?xml version="1.0" encoding="UTF-8" standalone="no"?>
<svg width="313px" height="51px" viewBox="0 0 313 51" version="1.1" xmlns="http://www.w3.org/2000/svg" xmlns:xlink="http://www.w3.org/1999/xlink">
    <!-- Generator: Sketch 3.7.2 (28276) - http://www.bohemiancoding.com/sketch -->
    <title>Group Copy 2</title>
    <desc>Created with Sketch.</desc>
    <defs></defs>
    <g id="Welcome" stroke="none" stroke-width="1" fill="none" fill-rule="evenodd">
        <g id="1280" transform="translate(-170.000000, -114.000000)" fill="#000000">
            <g id="Group-Copy-2" transform="translate(170.000000, 114.000000)">
                <path d="M0.86904093,31.5922379 L0.86904093,19.3851407 L3.22642523,19.3851407 L3.22642523,24.302857 L7.41733064,24.302857 L7.41733064,19.3851407 L9.77471494,19.3851407 L9.77471494,31.5922379 L7.41733064,31.5922379 L7.41733064,26.3083087 L3.22642523,26.3083087 L3.22642523,31.5922379 L0.86904093,31.5922379 Z M19.6807472,27.616212 L19.6807472,19.3851407 L22.0381315,19.3851407 L22.0381315,27.5115797 C22.0381315,28.174254 22.2273024,28.7003165 22.6056499,29.089783 C22.9839974,29.4792495 23.5398689,29.6739798 24.273281,29.6739798 C25.0066931,29.6739798 25.5654749,29.4821559 25.9496432,29.0985023 C26.3338114,28.7148488 26.5258927,28.1975056 26.5258927,27.5464571 L26.5258927,19.3851407 L28.883277,19.3851407 L28.883277,27.616212 C28.883277,28.988064 28.4641906,30.0372826 27.6260054,30.7638992 C26.7878201,31.4905157 25.6702565,31.8538186 24.273281,31.8538186 C22.8763056,31.8538186 21.7616523,31.4905157 20.9292878,30.7638992 C20.0969232,30.0372826 19.6807472,28.988064 19.6807472,27.616212 L19.6807472,27.616212 Z M38.7893092,31.5922379 L38.7893092,19.3851407 L41.216542,19.3851407 L44.7613494,27.3023152 L44.7962737,27.3023152 L48.3410812,19.3851407 L50.785776,19.3851407 L50.785776,31.5922379 L48.480778,31.5922379 L48.480778,24.0935925 L48.4458538,24.0935925 L44.9708947,31.5922379 L44.5867284,31.5922379 L41.1117693,24.0935925 L41.0768451,24.0935925 L41.0768451,31.5922379 L38.7893092,31.5922379 Z M68.0433548,31.5922379 L67.3448706,29.5867862 L62.6824883,29.5867862 L61.9840041,31.5922379 L59.6440819,31.5922379 L64.0619947,19.3851407 L66.0701368,19.3851407 L70.4705875,31.5922379 L68.0433548,31.5922379 Z M65.0049484,22.8728828 L63.3460483,27.6336507 L66.6813106,27.6336507 L65.0398726,22.8728828 L65.0049484,22.8728828 Z M79.3288934,31.5922379 L79.3288934,19.3851407 L81.6862777,19.3851407 L86.1565768,27.3895087 L86.191501,27.3895087 L86.191501,19.3851407 L88.5663474,19.3851407 L88.5663474,31.5922379 L86.2438874,31.5922379 L81.7212019,23.5878699 L81.6862777,23.5878699 L81.6862777,31.5922379 L79.3288934,31.5922379 Z M97.9485165,27.5115797 L100.428136,26.9709797 C100.579475,27.9243006 100.826852,28.6131228 101.170275,29.0374668 C101.513698,29.4618109 102.07539,29.6739798 102.855368,29.6739798 C103.518932,29.6739798 104.04861,29.5548164 104.44442,29.3164862 C104.84023,29.078156 105.038132,28.7264788 105.038132,28.2614442 C105.038132,27.7731579 104.848961,27.3982294 104.470613,27.1366474 C104.092266,26.8750655 103.2279,26.535014 101.87749,26.1164829 C100.608571,25.7212035 99.7092815,25.2416437 99.179595,24.6777893 C98.6499084,24.1139348 98.3850692,23.4192998 98.3850692,22.5938634 C98.3850692,21.6405425 98.75468,20.8238377 99.4939129,20.1437246 C100.233146,19.4636115 101.237207,19.12356 102.506126,19.12356 C103.658631,19.12356 104.651051,19.4025766 105.483415,19.9606181 C106.31578,20.5186596 106.836727,21.3498965 107.046274,22.4543537 L104.758738,23.0298311 C104.397852,21.8788705 103.646989,21.3033988 102.506126,21.3033988 C101.90077,21.3033988 101.44967,21.4196557 101.152813,21.652173 C100.855956,21.8846903 100.707529,22.1927711 100.707529,22.5764247 C100.707529,22.9368265 100.876328,23.2129366 101.21393,23.4047634 C101.551533,23.5965902 102.418809,23.9308288 103.815784,24.4074893 C105.166194,24.8725239 106.091676,25.375335 106.592259,25.9159377 C107.092842,26.4565404 107.343129,27.1860525 107.343129,28.1044958 C107.343129,29.1857013 106.935684,30.0808795 106.120782,30.7900572 C105.30588,31.499235 104.217419,31.8538186 102.855368,31.8538186 C101.470034,31.8538186 100.34956,31.4905157 99.4939129,30.7638992 C98.6382654,30.0372826 98.1231384,28.953187 97.9485165,27.5115797 L97.9485165,27.5115797 Z M144.63978,29.6914185 C145.477965,29.6914185 146.164801,29.351367 146.700309,28.6712539 C147.235816,27.9911408 147.503566,26.8954195 147.503566,25.384057 C147.503566,24.0587084 147.227085,23.0472733 146.674116,22.3497214 C146.121146,21.6521695 145.443041,21.3033988 144.63978,21.3033988 C143.824878,21.3033988 143.143863,21.6521695 142.596714,22.3497214 C142.049565,23.0472733 141.775995,24.0587084 141.775995,25.384057 C141.775995,26.8721678 142.043744,27.9620762 142.579252,28.6538152 C143.114759,29.3455542 143.801595,29.6914185 144.63978,29.6914185 L144.63978,29.6914185 Z M144.63978,31.8538186 C143.941292,31.8538186 143.28356,31.7317488 142.666562,31.4876056 C142.049565,31.2434625 141.487873,30.8743468 140.981469,30.3802475 C140.475065,29.8861483 140.073441,29.2118582 139.776584,28.3573571 C139.479726,27.5028561 139.3313,26.5117659 139.3313,25.384057 C139.3313,24.3726068 139.479726,23.4599901 139.776584,22.6461795 C140.073441,21.832369 140.475065,21.172611 140.981469,20.6668859 C141.487873,20.1611608 142.052475,19.777513 142.675293,19.515931 C143.298111,19.2543491 143.952934,19.12356 144.63978,19.12356 C145.326626,19.12356 145.981449,19.2543491 146.604267,19.515931 C147.227085,19.777513 147.791688,20.1611608 148.298091,20.6668859 C148.804495,21.172611 149.206119,21.832369 149.502977,22.6461795 C149.799834,23.4599901 149.94826,24.3726068 149.94826,25.384057 C149.94826,26.5117659 149.799834,27.5028561 149.502977,28.3573571 C149.206119,29.2118582 148.804495,29.8861483 148.298091,30.3802475 C147.791688,30.8743468 147.229996,31.2434625 146.612998,31.4876056 C145.996001,31.7317488 145.338268,31.8538186 144.63978,31.8538186 L144.63978,31.8538186 Z M159.41774,31.5922379 L159.41774,19.3851407 L167.170915,19.3851407 L167.170915,21.5649795 L161.775124,21.5649795 L161.775124,24.7911409 L166.681976,24.7911409 L166.681976,26.8663474 L161.775124,26.8663474 L161.775124,31.5922379 L159.41774,31.5922379 Z M200.119501,31.5922379 L200.119501,19.3851407 L202.476886,19.3851407 L202.476886,31.5922379 L200.119501,31.5922379 Z M215.089544,29.4123991 L216.71352,29.4123991 C217.132613,29.4123991 217.499313,29.3629899 217.813633,29.2641701 C218.127952,29.1653502 218.424805,28.9822456 218.7042,28.7148507 C218.983595,28.4474558 219.198959,28.0434631 219.350298,27.5028603 C219.501637,26.9622576 219.577305,26.2850611 219.577305,25.4712506 C219.577305,24.1110244 219.324107,23.1199343 218.817704,22.4979505 C218.3113,21.8759667 217.644837,21.5649795 216.818293,21.5649795 L215.089544,21.5649795 L215.089544,29.4123991 Z M212.73216,31.5922379 L212.73216,19.3851407 L216.818293,19.3851407 C217.51678,19.3851407 218.174513,19.5072104 218.791511,19.7513536 C219.408508,19.9954968 219.96729,20.3558932 220.467873,20.8325536 C220.968456,21.3092141 221.36717,21.9457207 221.664027,22.7420924 C221.960884,23.5384642 222.109311,24.4481745 222.109311,25.4712506 C222.109311,26.5873336 221.957974,27.5580788 221.655296,28.3835152 C221.352618,29.2089516 220.939352,29.8454582 220.415487,30.293054 C219.891621,30.7406498 219.324108,31.0690755 218.712931,31.2783411 C218.101754,31.4876067 217.435291,31.5922379 216.71352,31.5922379 L212.73216,31.5922379 Z M236.101476,29.6914185 C236.939661,29.6914185 237.626497,29.351367 238.162004,28.6712539 C238.697512,27.9911408 238.965261,26.8954195 238.965261,25.384057 C238.965261,24.0587084 238.688781,23.0472733 238.135811,22.3497214 C237.582842,21.6521695 236.904737,21.3033988 236.101476,21.3033988 C235.286574,21.3033988 234.605558,21.6521695 234.058409,22.3497214 C233.511261,23.0472733 233.237691,24.0587084 233.237691,25.384057 C233.237691,26.8721678 233.50544,27.9620762 234.040947,28.6538152 C234.576455,29.3455542 235.263291,29.6914185 236.101476,29.6914185 L236.101476,29.6914185 Z M236.101476,31.8538186 C235.402988,31.8538186 234.745255,31.7317488 234.128258,31.4876056 C233.51126,31.2434625 232.949568,30.8743468 232.443165,30.3802475 C231.936761,29.8861483 231.535137,29.2118582 231.238279,28.3573571 C230.941422,27.5028561 230.792996,26.5117659 230.792996,25.384057 C230.792996,24.3726068 230.941422,23.4599901 231.238279,22.6461795 C231.535137,21.832369 231.936761,21.172611 232.443165,20.6668859 C232.949568,20.1611608 233.514171,19.777513 234.136989,19.515931 C234.759807,19.2543491 235.41463,19.12356 236.101476,19.12356 C236.788322,19.12356 237.443145,19.2543491 238.065963,19.515931 C238.688781,19.777513 239.253383,20.1611608 239.759787,20.6668859 C240.266191,21.172611 240.667815,21.832369 240.964672,22.6461795 C241.26153,23.4599901 241.409956,24.3726068 241.409956,25.384057 C241.409956,26.5117659 241.26153,27.5028561 240.964672,28.3573571 C240.667815,29.2118582 240.266191,29.8861483 239.759787,30.3802475 C239.253383,30.8743468 238.691691,31.2434625 238.074694,31.4876056 C237.457696,31.7317488 236.799964,31.8538186 236.101476,31.8538186 L236.101476,31.8538186 Z M250.879436,31.5922379 L250.879436,19.3851407 L253.306668,19.3851407 L256.851476,27.3023152 L256.8864,27.3023152 L260.431208,19.3851407 L262.875902,19.3851407 L262.875902,31.5922379 L260.570904,31.5922379 L260.570904,24.0935925 L260.53598,24.0935925 L257.061021,31.5922379 L256.676855,31.5922379 L253.201896,24.0935925 L253.166972,24.0935925 L253.166972,31.5922379 L250.879436,31.5922379 Z M273.043866,31.5922379 L273.043866,19.3851407 L280.779579,19.3851407 L280.779579,21.5649795 L275.401251,21.5649795 L275.401251,24.302857 L280.29064,24.302857 L280.29064,26.3955022 L275.401251,26.3955022 L275.401251,29.4123991 L280.779579,29.4123991 L280.779579,31.5922379 L273.043866,31.5922379 Z M290.51099,31.5922379 L290.51099,19.3851407 L292.868375,19.3851407 L297.338674,27.3895087 L297.373598,27.3895087 L297.373598,19.3851407 L299.748444,19.3851407 L299.748444,31.5922379 L297.425984,31.5922379 L292.903299,23.5878699 L292.868375,23.5878699 L292.868375,31.5922379 L290.51099,31.5922379 Z M310.003719,31.5922379 L310.003719,19.3851407 L312.361103,19.3851407 L312.361103,31.5922379 L310.003719,31.5922379 Z M0,0 L313,0 L313,2.390625 L0,2.390625 L0,0 Z M0,48.609375 L313,48.609375 L313,51 L0,51 L0,48.609375 Z" id="Combined-Shape"></path>
            </g>
        </g>
    </g>
</svg>